<?xml version="1.0" encoding="UTF-8"?>
<svg id="Layer_1" data-name="Layer 1" xmlns="http://www.w3.org/2000/svg" viewBox="0 0 772.26 830.61">
  <defs>
    <style>
      .cls-1 {
        fill: #fff;
        stroke: #000;
        stroke-linecap: round;
        stroke-miterlimit: 10;
        stroke-width: 13px;
      }

      .cls-2 {
        font-family: Futura-Bold, Futura;
        font-size: 81.81px;
        font-weight: 700;
      }
    </style>
  </defs>
  <path d="M476.77,251.19c-.29,0-.54.15-.54.33l-1.22,578.58c0,.09.05.17.16.24.09.06.23.1.38.1h.03-.01l194.58-.62c.29,0,.53-.15.53-.34l1.77-577.96c0-.19-.24-.33-.54-.33h-195.15ZM476.77,251.19"/>
  <path d="M645.24,251.19c-.22,0-.4.15-.4.33l-1.33,578.75c0,.09.04.17.12.23.07.06.17.1.28.1h127.94c.11,0,.21-.04.28-.1.08-.06.12-.15.12-.23V251.52c0-.19-.18-.33-.4-.33h-126.62ZM645.24,251.19"/>
  <path d="M623.45,75.17c-.13,0-.25.05-.32.14l-135.61,156.86c-.09.1-.1.23-.03.35.06.11.2.18.34.18h-.01,272.69c.11,0,.21-.03.29-.1.08-.06.12-.15.12-.23h0c0-.07-.03-.14-.08-.2l-137.05-156.85c-.08-.09-.2-.14-.33-.14h0ZM623.45,75.17"/>
  <path d="M603.12,65.83H180.06c-.12,0-.23.04-.31.12L12.7,232.15c-.1.1-.12.24-.06.36.06.11.18.18.32.19h0s.03,0,.05,0h446.43c.11,0,.21-.03.28-.1.02-.01.03-.03.04-.04l143.68-166.2c.09-.1.1-.24.03-.35-.07-.11-.21-.18-.36-.18h0ZM603.12,65.83"/>
  <path d="M184.07,0c-.11,0-.21.04-.28.1-.08.06-.12.15-.12.23v46.66c0,.09.04.17.12.24.08.06.18.1.28.1h427.99c.22,0,.4-.15.4-.33V.33c0-.18-.18-.33-.4-.33H184.07ZM184.07,0"/>
  <g>
    <text class="cls-2" transform="translate(155.61 608.09)"><tspan x="0" y="0">0</tspan></text>
    <text class="cls-2" transform="translate(233.67 669.09)"><tspan x="0" y="0">0</tspan></text>
    <line class="cls-1" x1="262.71" y1="552.5" x2="180.34" y2="662"/>
  </g>
  <path d="M453.28,251.19H.4c-.11,0-.21.04-.28.1-.07.06-.12.15-.12.24v578.75c0,.19.18.33.4.33h451.96c.11,0,.21-.04.29-.1.07-.06.12-.15.12-.24l.91-578.75c0-.19-.18-.33-.4-.33ZM309.75,333.07c2.18,63.09-76.9,92.58-76.9,92.58-12.25-63.77,76.9-92.59,76.9-92.58ZM153.28,325.17s85.44,38.45,66.25,100.48c0,0-75.35-38.02-66.25-100.48ZM222.79,775.52c-93.89,0-170-76.11-170-170s76.11-170,170-170,170,76.11,170,170-76.11,170-170,170Z"/>
</svg>